PathFileType	4	(X/Y/Z)	 2.2Hzhigh3min.trc
DataRate	CameraRate	NumFrames	NumMarkers	Units	OrigDataRate	OrigDataStartFrame	OrigNumFrames
200	200	8	35	m	200	126	1000
Frame#	Time	C7			LSH			RSH			MAN			RASI			LASI			HIPR			HIPL			RPSI			LPSI			COX			RTHI1			RTHI2			RTHI3			RTHI4			RSHA1			RSHA2			RSHA3			RSHA4			RHEEL			RMET5			RMET1			RTOE			LTHI1			LTHI2			LTHI3			LTHI4			LSHA1			LSHA2			LSHA3			LSHA4			LHEEL			LMET5			LMET1			LTOE			
		X1	Y1	Z1	X2	Y2	Z2	X3	Y3	Z3	X4	Y4	Z4	X5	Y5	Z5	X6	Y6	Z6	X7	Y7	Z7	X8	Y8	Z8	X9	Y9	Z9	X10	Y10	Z10	X11	Y11	Z11	X12	Y12	Z12	X13	Y13	Z13	X14	Y14	Z14	X15	Y15	Z15	X16	Y16	Z16	X17	Y17	Z17	X18	Y18	Z18	X19	Y19	Z19	X20	Y20	Z20	X21	Y21	Z21	X22	Y22	Z22	X23	Y23	Z23	X24	Y24	Z24	X25	Y25	Z25	X26	Y26	Z26	X27	Y27	Z27	X28	Y28	Z28	X29	Y29	Z29	X30	Y30	Z30	X31	Y31	Z31	X32	Y32	Z32	X33	Y33	Z33	X34	Y34	Z34	X35	Y35	Z35	
126	0.6300	-0.000000	0.000000	-0.000000	-0.239922	1.435836	-0.703651	-0.242661	1.412929	-0.370465	-0.163569	1.386129	-0.537095	-0.120800	0.994129	-0.420028	-0.122742	0.994172	-0.643557	-0.181255	1.046381	-0.394976	-0.185299	1.034962	-0.674806	-0.282064	1.018187	-0.478720	-0.286433	1.015456	-0.584483	-0.283838	1.025065	-0.527910	-0.210854	0.792481	-0.362561	-0.192884	0.735614	-0.362406	-0.129966	0.753236	-0.359288	-0.141480	0.813605	-0.360199	-0.228611	0.413192	-0.354718	-0.246138	0.373735	-0.359325	-0.176776	0.395548	-0.371681	-0.188997	0.356962	-0.372321	-0.343136	0.150393	-0.417818	-0.233867	0.035177	-0.374853	-0.206323	0.037000	-0.446230	-0.183387	0.027896	-0.443898	-0.201596	0.784308	-0.712243	-0.177809	0.727666	-0.708840	-0.117001	0.747711	-0.701047	-0.131836	0.806110	-0.703587	-0.238912	0.377358	-0.711741	-0.254538	0.339975	-0.711362	-0.195737	0.322804	-0.697060	-0.187378	0.366068	-0.700060	-0.346427	0.132614	-0.663512	-0.222893	0.038297	-0.706238	-0.193642	0.036801	-0.640250	-0.171281	0.026045	-0.637766	
127	0.6350	-0.000000	0.000000	-0.000000	-0.239885	1.442541	-0.703153	-0.242809	1.419743	-0.370967	-0.163902	1.392950	-0.537113	-0.120029	1.000473	-0.420532	-0.121979	1.000475	-0.643434	-0.179877	1.053466	-0.395501	-0.184229	1.041791	-0.674626	-0.280840	1.024760	-0.478714	-0.285396	1.021956	-0.584564	-0.282857	1.031284	-0.527980	-0.210743	0.799135	-0.362172	-0.193253	0.742128	-0.361751	-0.130179	0.759244	-0.358761	-0.141188	0.819677	-0.359944	-0.230108	0.418372	-0.354222	-0.246812	0.378555	-0.358531	-0.177762	0.401622	-0.370371	-0.189241	0.362773	-0.370775	-0.338321	0.154353	-0.417214	-0.232697	0.035782	-0.374871	-0.205405	0.037475	-0.445858	-0.183148	0.028093	-0.443322	-0.201715	0.791070	-0.712551	-0.178295	0.734274	-0.709339	-0.117345	0.753897	-0.701539	-0.131803	0.812378	-0.703908	-0.240185	0.382300	-0.711781	-0.255151	0.344669	-0.711325	-0.195836	0.328501	-0.697999	-0.188293	0.371895	-0.700931	-0.342308	0.137019	-0.663033	-0.221703	0.039205	-0.706001	-0.192853	0.037158	-0.640110	-0.170985	0.026188	-0.637802	
128	0.6400	-0.000000	0.000000	-0.000000	-0.239808	1.449040	-0.702645	-0.242968	1.426368	-0.371483	-0.164272	1.399604	-0.537112	-0.119302	1.006573	-0.421058	-0.121215	1.006539	-0.643309	-0.178507	1.060247	-0.395970	-0.183123	1.048378	-0.674476	-0.279586	1.031258	-0.478689	-0.284326	1.028388	-0.584623	-0.281854	1.037438	-0.528021	-0.210691	0.805616	-0.361796	-0.193686	0.748466	-0.361092	-0.130460	0.765065	-0.358179	-0.140962	0.825568	-0.359661	-0.231613	0.423366	-0.353869	-0.247463	0.383173	-0.357891	-0.178751	0.407543	-0.369135	-0.189463	0.368444	-0.369291	-0.333344	0.158420	-0.416584	-0.231391	0.036528	-0.374891	-0.204262	0.038161	-0.445414	-0.182728	0.028360	-0.442589	-0.201941	0.797708	-0.712837	-0.178886	0.740764	-0.709865	-0.117785	0.759967	-0.702143	-0.131874	0.818530	-0.704314	-0.241426	0.387084	-0.711712	-0.255709	0.349211	-0.711202	-0.195893	0.334059	-0.698935	-0.189183	0.377567	-0.701765	-0.338115	0.141444	-0.662607	-0.220451	0.040236	-0.705766	-0.191854	0.037750	-0.640041	-0.170491	0.026423	-0.637911	
129	0.6450	-0.000000	0.000000	-0.000000	-0.239708	1.455309	-0.702132	-0.243134	1.432768	-0.372038	-0.164640	1.406042	-0.537095	-0.118620	1.012398	-0.421580	-0.120453	1.012343	-0.643189	-0.177152	1.066700	-0.396390	-0.181994	1.054699	-0.674357	-0.278308	1.037652	-0.478656	-0.283233	1.034732	-0.584653	-0.280836	1.043524	-0.528035	-0.210691	0.811870	-0.361431	-0.194166	0.754591	-0.360440	-0.130806	0.770681	-0.357561	-0.140798	0.831255	-0.359353	-0.233113	0.428130	-0.353722	-0.248092	0.387581	-0.357402	-0.179729	0.413272	-0.367967	-0.189664	0.373929	-0.367890	-0.328274	0.162514	-0.415805	-0.229920	0.037464	-0.374892	-0.202885	0.039082	-0.444895	-0.182082	0.028720	-0.441701	-0.202265	0.804194	-0.713096	-0.179572	0.747100	-0.710403	-0.118316	0.765873	-0.702841	-0.132034	0.824525	-0.704797	-0.242620	0.391690	-0.711559	-0.256213	0.353573	-0.711015	-0.195918	0.339449	-0.699850	-0.190039	0.383063	-0.702549	-0.333925	0.145873	-0.662280	-0.219140	0.041427	-0.705541	-0.190628	0.038616	-0.640052	-0.169768	0.026785	-0.638106	
130	0.6500	-0.000000	0.000000	-0.000000	-0.239588	1.461320	-0.701618	-0.243300	1.438918	-0.372565	-0.165005	1.412249	-0.537055	-0.117980	1.017932	-0.422093	-0.119698	1.017866	-0.643082	-0.175852	1.072790	-0.396767	-0.180850	1.060746	-0.674267	-0.277033	1.043908	-0.478623	-0.282123	1.040957	-0.584670	-0.279814	1.049511	-0.528034	-0.210742	0.817865	-0.361094	-0.194685	0.760455	-0.359813	-0.131199	0.776058	-0.356914	-0.140693	0.836698	-0.359016	-0.234562	0.432626	-0.353684	-0.248677	0.391786	-0.357081	-0.180679	0.418744	-0.366865	-0.189846	0.379194	-0.366589	-0.323270	0.166621	-0.414870	-0.228259	0.038641	-0.374853	-0.201266	0.040272	-0.444292	-0.181172	0.029220	-0.440669	-0.202678	0.810487	-0.713315	-0.180347	0.753245	-0.710938	-0.118928	0.771588	-0.703641	-0.132275	0.830335	-0.705365	-0.243733	0.396111	-0.711347	-0.256647	0.357762	-0.710778	-0.195912	0.344641	-0.700719	-0.190849	0.388354	-0.703276	-0.329818	0.150303	-0.662108	-0.217776	0.042808	-0.705339	-0.189174	0.039784	-0.640162	-0.168817	0.027311	-0.638402	
131	0.6550	-0.000000	0.000000	-0.000000	-0.239404	1.467037	-0.701113	-0.243461	1.444785	-0.373081	-0.165399	1.418213	-0.536985	-0.117377	1.023164	-0.422585	-0.118956	1.023090	-0.643002	-0.174626	1.078515	-0.397100	-0.179703	1.066506	-0.674202	-0.275776	1.050004	-0.478597	-0.281017	1.047032	-0.584668	-0.278802	1.055391	-0.528031	-0.210834	0.823561	-0.360791	-0.195228	0.766039	-0.359239	-0.131623	0.781186	-0.356259	-0.140642	0.841877	-0.358653	-0.235918	0.436856	-0.353727	-0.249202	0.395744	-0.356897	-0.181580	0.423922	-0.365879	-0.190004	0.384201	-0.365419	-0.318432	0.170719	-0.413783	-0.226390	0.040106	-0.374752	-0.199396	0.041770	-0.443597	-0.179967	0.029932	-0.439512	-0.203179	0.816545	-0.713478	-0.181201	0.759154	-0.711436	-0.119617	0.777078	-0.704543	-0.132598	0.835916	-0.705999	-0.244736	0.400344	-0.711105	-0.256996	0.361771	-0.710505	-0.195875	0.349624	-0.701528	-0.191593	0.393409	-0.703937	-0.325890	0.154694	-0.662106	-0.216367	0.044416	-0.705160	-0.187531	0.041244	-0.640376	-0.167664	0.028022	-0.638814	
132	0.6600	-0.000000	0.000000	-0.000000	-0.239202	1.472464	-0.700627	-0.243610	1.450355	-0.373587	-0.165681	1.423824	-0.536919	-0.116812	1.028088	-0.423047	-0.118233	1.028013	-0.642946	-0.173480	1.083885	-0.397389	-0.178568	1.071976	-0.674165	-0.274568	1.055894	-0.478585	-0.279929	1.052936	-0.584665	-0.277819	1.061125	-0.528037	-0.210953	0.828945	-0.360524	-0.195776	0.771316	-0.358737	-0.132071	0.786025	-0.355607	-0.140636	0.846780	-0.358261	-0.237138	0.440803	-0.353804	-0.249639	0.399448	-0.356800	-0.182397	0.428787	-0.365000	-0.190114	0.388919	-0.364384	-0.313873	0.174681	-0.412542	-0.224302	0.041901	-0.374560	-0.197268	0.043593	-0.442793	-0.178424	0.030955	-0.438249	-0.203762	0.822332	-0.713572	-0.182131	0.764790	-0.711878	-0.120382	0.782304	-0.705532	-0.133004	0.841233	-0.706698	-0.245585	0.404387	-0.710849	-0.257246	0.365604	-0.710216	-0.195799	0.354365	-0.702249	-0.192235	0.398214	-0.704523	-0.322225	0.158996	-0.662256	-0.214925	0.046272	-0.705005	-0.185757	0.042982	-0.640698	-0.166356	0.028955	-0.639348	
133	0.6650	-0.000000	0.000000	-0.000000	-0.239024	1.477590	-0.700173	-0.243716	1.455607	-0.374087	-0.165886	1.429074	-0.536857	-0.116296	1.032706	-0.423471	-0.117542	1.032632	-0.642918	-0.172419	1.088912	-0.397638	-0.177459	1.077158	-0.674150	-0.273434	1.061556	-0.478595	-0.278882	1.058639	-0.584668	-0.276879	1.066694	-0.528057	-0.211091	0.833995	-0.360301	-0.196306	0.776277	-0.358312	-0.132525	0.790579	-0.354973	-0.140664	0.851398	-0.357842	-0.238171	0.444467	-0.353882	-0.249949	0.402924	-0.356753	-0.183085	0.433323	-0.364214	-0.190148	0.393337	-0.363465	-0.309691	0.178402	-0.411185	-0.221994	0.044043	-0.374245	-0.194865	0.045757	-0.441874	-0.176504	0.032385	-0.436897	-0.204428	0.827804	-0.713590	-0.183132	0.770120	-0.712259	-0.121221	0.787228	-0.706578	-0.133491	0.846254	-0.707458	-0.246248	0.408247	-0.710599	-0.257373	0.369269	-0.709918	-0.195662	0.358853	-0.702868	-0.192734	0.402761	-0.705027	-0.318876	0.163167	-0.662526	-0.213464	0.048384	-0.704879	-0.183916	0.044977	-0.641120	-0.164944	0.030151	-0.640002	
